<?xml version="1.0" encoding="utf-8"?>
<!-- Generator: Adobe Illustrator 28.0.0, SVG Export Plug-In . SVG Version: 6.00 Build 0)  -->
<svg version="1.1" id="Layer_1" xmlns="http://www.w3.org/2000/svg" xmlns:xlink="http://www.w3.org/1999/xlink" x="0px" y="0px"
	 viewBox="0 0 250 100" style="enable-background:new 0 0 250 100;" xml:space="preserve">
<style type="text/css">
	.st0{fill:#FF5A60;}
	.st1{fill:#222222;}
	.st2{fill:#484848;}
	.st3{fill:#E31C5F;}
	.st4{fill:#F7F7F7;}
	.st5{fill:none;stroke:#FF5A60;stroke-width:8;stroke-linecap:round;stroke-linejoin:round;stroke-miterlimit:10;}
	.st6{fill:none;stroke:url(#SVGID_1_);stroke-width:9;stroke-linecap:round;stroke-linejoin:round;stroke-miterlimit:10;}
	
		.st7{fill:none;stroke:url(#SVGID_00000071542619475006495880000013512373743485279416_);stroke-width:10;stroke-linecap:round;stroke-linejoin:round;stroke-miterlimit:10;}
	.st8{fill:url(#SVGID_00000119816983544768575500000005545287776583791288_);}
	.st9{fill:#2B2B2B;}
	.st10{fill:url(#SVGID_00000005973157178572570600000001159188283852368529_);}
</style>
<g>
	<g>
		<g>
			
				<linearGradient id="SVGID_1_" gradientUnits="userSpaceOnUse" x1="-152.2584" y1="155.6206" x2="-100.2227" y2="155.6206" gradientTransform="matrix(-0.6545 0.756 0.756 0.6545 -155.314 58.5331)">
				<stop  offset="0" style="stop-color:#E31C5F"/>
				<stop  offset="0.78" style="stop-color:#FF5A60"/>
			</linearGradient>
			<path style="fill:url(#SVGID_1_);" d="M28.5,83.3c-2.9,0-5.4-2.3-5.6-5.3c-0.2-3.1,2.2-5.7,5.3-5.9c0.9-0.1,1.8-0.1,2.7-0.2
				c9.8-0.7,17.7-9,17.9-18.9c0-2.4,0-4.7,0-6.8c-0.1-3.1,2.3-5.7,5.4-5.8c3.1-0.1,5.7,2.3,5.8,5.4c0.1,2.3,0.1,4.8,0,7.4
				C59.7,69.1,47.6,82,31.8,83.1c-1,0.1-1.9,0.1-2.9,0.2C28.8,83.3,28.6,83.3,28.5,83.3z"/>
			<circle class="st0" cx="51.6" cy="26.3" r="9.6"/>
			<circle class="st3" cx="31.8" cy="54.6" r="9.6"/>
		</g>
	</g>
	<g>
		<path class="st9" d="M82.3,66.1C80.8,65,80,63.8,80,62.2c0-1.1,0.3-2,1-2.7c0.7-0.7,1.6-1,2.7-1c0.3,0,0.5,0,0.8,0.1
			c0.3,0,0.4,0.1,0.5,0.1l0.6,0.1v7.4c0.2,0.1,0.5,0.2,0.7,0.2c0.6,0.2,1.2,0.2,1.8,0.2c4,0,5.9-3.2,5.9-9.6V33.8l-3-0.7v-0.7h14.1
			v0.7l-3,0.7V57c0,3.4-1.1,6.1-3.2,7.9c-2.1,1.8-5.4,2.7-9.9,2.7C86.1,67.7,83.8,67.2,82.3,66.1z"/>
		<path class="st9" d="M109.6,65.8c-1.6-1.3-2.4-2.9-2.4-4.8c0-1.3,0.3-2.6,0.8-3.8c0.2-0.6,0.5-1.1,0.9-1.6
			c1.4-0.3,2.8-0.6,4.4-0.9c3.6-0.6,6.7-1,9.4-1.1v-1.5c0-3.7-0.4-6.2-1.3-7.6c-0.9-1.4-2.3-2.1-4.1-2.1c-0.7,0-1.3,0.1-1.8,0.2
			l-0.7,0.2v7.4l-0.6,0.1c-0.5,0.1-1,0.1-1.3,0.1c-1.1,0-2-0.3-2.7-1c-0.7-0.7-1-1.6-1-2.7c0-1.5,0.8-2.8,2.3-3.9
			c1.5-1.1,3.8-1.6,6.9-1.6c2.6,0,4.8,0.5,6.7,1.4c1.9,0.9,3.3,2.2,4.3,3.8c1,1.6,1.5,3.4,1.5,5.5v13.4l3,0.7v0.7h-4.5
			c-2,0-3.5-0.6-4.6-1.8c-0.5-0.5-0.8-1.1-1.1-1.9c-0.5,0.8-1,1.6-1.6,2.2c-1.5,1.5-3.3,2.2-5.5,2.2
			C113.4,67.7,111.1,67.1,109.6,65.8z M121.6,64c0.4-0.5,0.7-1.2,1.1-2v-7.2c-1.5,0-3,0.1-4.4,0.2c-1,0.1-1.7,0.2-2.1,0.2
			c-0.2,0.4-0.3,0.9-0.5,1.5c-0.3,1.3-0.5,2.5-0.5,3.7c0,1.8,0.3,3.2,0.8,4.1c0.6,0.9,1.3,1.3,2.1,1.3C119.5,66,120.6,65.3,121.6,64
			z"/>
		<path class="st9" d="M136.1,66.2l3-0.7V33.8l-3-0.7v-0.7h6.4c3,0,4.5,1.5,4.5,4.5v28.7l3,0.7v0.7h-13.9V66.2z"/>
		<path class="st9" d="M155,64.2c-2.3-2.3-3.5-5.5-3.5-9.6c0-2.7,0.5-5,1.5-7c1-2,2.4-3.5,4.3-4.6c1.8-1.1,3.9-1.6,6.3-1.6
			c2.4,0,4.5,0.4,6.3,1.3c1.8,0.9,3.2,2.1,4.2,3.6c1,1.5,1.5,3.2,1.5,5c0,0.8-0.1,1.5-0.2,2.1l-0.2,0.8c-1.4,0.3-3,0.5-4.6,0.7
			c-3.5,0.5-7,0.7-10.5,0.7c0,3.8,0.5,6.6,1.6,8.2s2.5,2.4,4.4,2.4c1.3,0,2.5-0.3,3.6-0.9c1.1-0.6,2-1.4,2.6-2.4c0.6-1,1-2,1-3.1
			h1.2c0,1.3-0.4,2.6-1.2,3.8c-0.8,1.2-1.9,2.1-3.3,2.8c-1.4,0.7-3.1,1.1-4.9,1.1C160.6,67.7,157.3,66.5,155,64.2z M165,54.3
			c0.6,0,1.2-0.1,1.8-0.2c0-0.2,0.1-0.5,0.2-1.1c0.2-0.8,0.2-1.7,0.2-2.6c0-2.7-0.4-4.7-1.1-6c-0.7-1.3-1.6-1.9-2.6-1.9
			c-2.5,0-3.7,4-3.7,12.1C162,54.6,163.7,54.5,165,54.3z"/>
		<path class="st9" d="M181.2,64.2c-2.3-2.3-3.5-5.5-3.5-9.6c0-2.7,0.5-5,1.5-7c1-2,2.4-3.5,4.3-4.6c1.8-1.1,3.9-1.6,6.3-1.6
			c2.4,0,4.5,0.4,6.3,1.3c1.8,0.9,3.2,2.1,4.2,3.6c1,1.5,1.5,3.2,1.5,5c0,0.8-0.1,1.5-0.2,2.1l-0.2,0.8c-1.4,0.3-3,0.5-4.6,0.7
			c-3.5,0.5-7,0.7-10.5,0.7c0,3.8,0.5,6.6,1.6,8.2s2.5,2.4,4.4,2.4c1.3,0,2.5-0.3,3.6-0.9c1.1-0.6,2-1.4,2.6-2.4c0.6-1,1-2,1-3.1
			h1.2c0,1.3-0.4,2.6-1.2,3.8c-0.8,1.2-1.9,2.1-3.3,2.8c-1.4,0.7-3.1,1.1-4.9,1.1C186.8,67.7,183.5,66.5,181.2,64.2z M191.2,54.3
			c0.6,0,1.2-0.1,1.8-0.2c0-0.2,0.1-0.5,0.2-1.1c0.2-0.8,0.2-1.7,0.2-2.6c0-2.7-0.4-4.7-1.1-6c-0.7-1.3-1.6-1.9-2.6-1.9
			c-2.5,0-3.7,4-3.7,12.1C188.2,54.6,189.9,54.5,191.2,54.3z"/>
		<path class="st9" d="M211,66.3c-0.8-0.4-1.4-0.9-1.9-1.4c-0.5,0.7-1.1,1.3-1.7,1.7c-0.3,0.2-0.6,0.4-1,0.5h-1.2v-8.4h2
			c0.4,1.4,1.1,2.7,1.9,3.9c1.7,2.5,3.9,3.8,6.5,3.8c1.4,0,2.4-0.3,3.1-1c0.7-0.7,1.1-1.7,1.1-2.9c0-1.1-0.5-2-1.5-2.7
			c-1-0.7-2.5-1.7-4.6-2.7c-1.8-0.9-3.2-1.7-4.3-2.4c-1.1-0.7-2-1.6-2.8-2.7c-0.8-1.1-1.2-2.3-1.2-3.8c0-2,0.8-3.6,2.5-4.8
			c1.7-1.2,4.3-1.9,7.8-1.9c1.7,0,3.4,0.5,4.8,1.4c0.7,0.4,1.4,0.9,1.9,1.3c0.4-0.6,1-1.2,1.7-1.7c0.6-0.3,0.9-0.5,1-0.5h1.2v8.4h-2
			c-0.5-1.4-1.1-2.7-1.8-3.8c-1.6-2.6-3.6-3.9-5.9-3.9c-0.9,0-1.6,0.3-2.3,1c-0.6,0.7-0.9,1.5-0.9,2.5c0,1.3,0.5,2.3,1.6,3.1
			s2.7,1.8,4.8,2.9c1.7,0.9,3.1,1.7,4.2,2.3c1,0.7,1.9,1.5,2.7,2.5c0.7,1,1.1,2.1,1.1,3.5c0,4.8-3.8,7.2-11.4,7.2
			C214.4,67.7,212.6,67.2,211,66.3z"/>
	</g>
</g>
</svg>
